<svg
        width="16"
        height="16"
        viewBox="0 0 16 16"
        fill="none"
        xmlns="http://www.w3.org/2000/svg"
        aria-hidden="true"
        focusable="false"
>
    <path
            d="M8.75684 10.0527C9.28892 11.5691 9.59795 12.8718 9.76074 13.6523C9.20976 13.8237 8.62084 13.917 8.01367 13.917C6.87823 13.917 5.82267 13.6005 4.92773 13.0479C5.44669 12.3054 6.62664 10.9645 8.75684 10.0527Z"
            fill="#460455"
            stroke="#460455"
            stroke-width="1.5"
    />
    <path
            fill-rule="evenodd"
            clip-rule="evenodd"
            d="M14.5458 9.26036C14.2391 10.9004 13.3191 12.327 12.0324 13.3004C11.8924 13.407 11.6924 13.327 11.6591 13.1603C11.5191 12.4403 11.1791 10.887 10.5258 9.04035C10.4791 8.90035 10.5725 8.74701 10.7191 8.72701C12.3791 8.52701 13.8325 8.84701 14.3791 8.99367C14.4925 9.03367 14.5658 9.14702 14.5458 9.26036Z"
            fill="#460455"
    />
    <path
            fill-rule="evenodd"
            clip-rule="evenodd"
            d="M14.3928 7.87978C13.7128 7.75978 11.9795 7.50643 10.2062 7.69976C10.0995 7.7131 10.0062 7.6531 9.95949 7.55309C9.93283 7.49309 9.91284 7.4331 9.88617 7.3731C9.7795 7.12644 9.66617 6.87311 9.55284 6.62644C9.49284 6.50644 9.55283 6.35976 9.67283 6.30643C11.5395 5.49976 12.5795 4.45976 12.9861 3.9931C13.0861 3.87976 13.2595 3.88644 13.3528 4.00644C14.1195 5.02644 14.5928 6.2731 14.6662 7.61977C14.6728 7.78643 14.5395 7.90644 14.3928 7.87978Z"
            fill="#460455"
    />
    <path
            fill-rule="evenodd"
            clip-rule="evenodd"
            d="M12.2933 3.19318C11.9466 3.61318 10.9733 4.61316 9.12664 5.3465C9.01997 5.39316 8.8933 5.34649 8.8333 5.23983C7.97997 3.69316 7.07329 2.39316 6.65329 1.8065C6.55329 1.6665 6.63331 1.46651 6.79998 1.43984C7.18665 1.37317 7.59331 1.33984 8.00664 1.33984C9.61998 1.33984 11.1066 1.91317 12.26 2.87317C12.36 2.9465 12.3733 3.09318 12.2933 3.19318Z"
            fill="#460455"
    />
    <path
            fill-rule="evenodd"
            clip-rule="evenodd"
            d="M7.34717 5.8936C4.8205 6.52693 2.58714 6.6136 1.77381 6.62694C1.62047 6.62694 1.50716 6.48027 1.54716 6.3336C2.02716 4.46694 3.30715 2.90694 4.99382 2.04694C5.09382 1.99361 5.22049 2.02693 5.28715 2.12026C5.63382 2.60026 6.57382 3.95361 7.49382 5.54694C7.56715 5.68027 7.5005 5.8536 7.34717 5.8936Z"
            fill="#460455"
    />
    <path
            fill-rule="evenodd"
            clip-rule="evenodd"
            d="M8.61316 7.73308C8.67316 7.85975 8.59985 8.01308 8.46651 8.05974C5.51318 9.01308 3.74651 11.3798 3.21318 12.1931C3.12651 12.3264 2.93984 12.3331 2.83984 12.2131C1.90651 11.0664 1.33984 9.75307 1.33984 8.15974V8.03974C1.33984 7.90641 1.4465 7.79974 1.57983 7.80641C2.41983 7.83974 5.15984 7.7264 8.00651 6.9064C8.11318 6.87307 8.23316 6.92642 8.27983 7.02642C8.39316 7.25975 8.50649 7.49308 8.61316 7.73308Z"
            fill="#460455"
    />
</svg>