<svg
        width="16"
        height="16"
        viewBox="0 0 16 16"
        fill="none"
        xmlns="http://www.w3.org/2000/svg"
        aria-hidden="true"
        focusable="false"
>
    <path
            d="M12.6675 4.66634C12.6675 4.78634 12.6608 4.89967 12.6475 5.013C12.5675 5.97967 12.1408 6.853 11.4941 7.493C10.7741 8.21967 9.77413 8.66634 8.66746 8.66634H6.58079C6.24746 8.66634 5.96746 8.913 5.9208 9.23967L5.41412 12.7597C5.37412 13.0197 5.18746 13.233 4.94079 13.2997C4.88079 13.3263 4.8208 13.333 4.75413 13.333H3.45412C3.04079 13.333 2.72746 12.9663 2.79413 12.5597L4.38745 3.00635C4.54745 2.03968 5.3808 1.33301 6.3608 1.33301H9.33413C11.1741 1.33301 12.6675 2.82634 12.6675 4.66634Z"
            fill="white"
    />
    <path
            d="M8.15039 10.417C7.98932 10.6065 7.87645 10.8406 7.83301 11.1035L7.36328 13.917H6.81543C6.97981 13.6452 7.0935 13.3385 7.1416 13.0088V13.0078L7.5166 10.417H8.15039ZM12.9883 8.46094C12.8624 8.7211 12.6957 8.95768 12.4941 9.16211C12.1224 9.52859 11.6451 9.78219 11.1123 9.875C11.7083 9.59568 12.2568 9.21339 12.7314 8.73535L12.7305 8.73438C12.8197 8.646 12.9055 8.55475 12.9883 8.46094Z"
            fill="white"
            stroke="white"
            stroke-width="1.5"
    />
</svg>